Coordinates
version=1
nRows=9
nColumns=42
inDegrees=yes

Units are S.I. units (second, meters, Newtons, ...)
If the header above contains a line with 'inDegrees', this indicates whether rotational values are in degrees (yes) or radians (no).

endheader
time	pelvis_tilt	pelvis_list	pelvis_rotation	pelvis_tx	pelvis_ty	pelvis_tz	hip_flexion_r	hip_adduction_r	hip_rotation_r	knee_angle_r	knee_adduction_r	knee_angle_r_beta	ankle_angle_r	subtalar_angle_r	mtp_angle_r	hip_flexion_l	hip_adduction_l	hip_rotation_l	knee_angle_l	knee_adduction_l	knee_angle_l_beta	ankle_angle_l	subtalar_angle_l	mtp_angle_l	lumbar_extension	lumbar_bending	lumbar_rotation	arm_flex_r	arm_add_r	arm_rot_r	elbow_flex_r	pro_sup_r	wrist_flex_r	wrist_dev_r	arm_flex_l	arm_add_l	arm_rot_l	elbow_flex_l	pro_sup_l	wrist_flex_l	wrist_dev_l
      3.34000000	     23.55766373	     -1.94101946	     -6.28547992	     -0.65153283	      0.94944599	      0.07792139	    -24.18891249	      0.20312526	    -26.83466005	     20.15302893	    -13.98379566	      0.35173671	     23.59338576	     36.41660649	     -7.50120802	     -3.21819574	      1.87363610	     -2.95867669	     27.83768410	     -2.15637982	      0.48585924	      6.26462068	    -18.31507699	     -7.50120802	    -39.01681305	     -3.23529039	      4.74409047	     21.46532669	    -11.15676925	     -1.56196767	     55.41108134	     90.00000001	      0.00000000	      0.00000000	     -0.06186637	    -14.62244878	      7.90016020	     51.25828095	     90.00000001	      0.00000000	      0.00000000
      3.35000000	     23.67319320	     -1.74131994	     -6.31254915	     -0.64598927	      0.94888260	      0.07647963	    -24.58877910	     -0.06660323	    -26.73343894	     20.27804655	    -14.22289621	      0.35391868	     23.60855455	     36.39484912	     -7.50120551	     -3.39865147	      2.26145382	     -2.60039145	     28.41854174	     -2.06518936	      0.49599712	      6.25117467	    -18.33002136	     -7.50120551	    -38.99301192	     -3.41270976	      4.71100817	     20.99293496	    -11.21334780	     -1.61542220	     55.14428841	     90.00000001	      0.00000000	      0.00000000	     -0.17468410	    -14.69087395	      7.83638722	     51.20333514	     90.00000001	      0.00000000	      0.00000000
      3.36000000	     23.77896218	     -1.44560302	     -6.27054606	     -0.64052337	      0.94827482	      0.07496742	    -24.98274972	     -0.44492072	    -26.74313757	     20.43693567	    -14.32294529	      0.35669182	     23.71361820	     36.28350649	     -7.50120208	     -3.48634369	      2.73297314	     -2.06396044	     29.17867186	     -1.87864317	      0.50926390	      6.31952097	    -18.44258228	     -7.50120208	    -38.97660904	     -3.69095924	      4.68301728	     20.54088515	    -11.28399575	     -1.68609265	     54.77446811	     90.00000001	      0.00000000	      0.00000000	     -0.16256460	    -14.83886725	      7.72216762	     51.17137085	     90.00000001	      0.00000000	      0.00000000
      3.37000000	     23.60748339	     -1.12094874	     -6.13911431	     -0.63530352	      0.94734814	      0.07322117	    -24.85485737	     -0.91809198	    -27.29096970	     21.08403211	    -14.44452316	      0.36798578	     24.48244553	     35.72678145	     -7.50118187	     -3.27356025	      3.19465045	     -1.00445728	     29.88853061	     -1.43852924	      0.52165327	      6.82006869	    -18.72624923	     -7.50118187	    -38.69774223	     -3.89471900	      4.46188139	     20.48456818	    -11.15728562	     -1.96893174	     53.48999683	     90.00000001	      0.00000000	      0.00000000	     -0.08576065	    -14.90525762	      7.32430143	     51.11872115	     90.00000001	      0.00000000	      0.00000000
      3.38000000	     23.59687014	     -0.83765018	     -6.12010181	     -0.63002051	      0.94667339	      0.07162405	    -24.97316716	     -1.29966328	    -27.37137954	     21.53507023	    -14.63976368	      0.37585788	     24.79276102	     35.41036410	     -7.50108827	     -3.29907810	      3.62019583	     -0.62878780	     30.42535914	     -1.22397115	      0.53102269	      6.97532730	    -18.80130280	     -7.50108827	    -38.56603241	     -4.15425843	      4.29124716	     20.55011725	    -10.78648284	     -2.96996157	     51.75778353	     90.00000001	      0.00000000	      0.00000000	     -0.11233095	    -14.74187049	      6.13092730	     50.98104483	     90.00000001	      0.00000000	      0.00000000
      3.39000000	     23.66363741	     -0.63218226	     -6.09315294	     -0.62477475	      0.94613997	      0.07006196	    -25.20492750	     -1.52685172	    -27.29536603	     21.86244072	    -14.92664032	      0.38157157	     24.79910112	     35.33146004	     -7.50108531	     -3.46451927	      3.94524906	     -0.44785846	     30.83581818	     -1.04888859	      0.53818655	      7.04957056	    -18.80885143	     -7.50108531	    -38.55591302	     -4.34042919	      4.23334957	     20.05829698	    -10.85875241	     -3.01133357	     51.52882552	     90.00000001	      0.00000000	      0.00000000	     -0.12506644	    -14.84794351	      6.07431351	     50.95810377	     90.00000001	      0.00000000	      0.00000000
      3.40000000	     23.50956927	     -0.29747938	     -6.07778256	     -0.61978000	      0.94530502	      0.06828735	    -24.91240107	     -2.09643763	    -27.74407115	     22.88640359	    -15.12832324	      0.39944310	     25.29015455	     34.57120902	     -7.50106436	     -3.35143993	      4.40777392	     -0.24254672	     31.26748666	     -0.84966657	      0.54572059	      7.52511286	    -18.83928369	     -7.50106436	    -38.32561949	     -4.61564860	      4.16839239	     19.79263909	    -10.92208976	     -3.15665665	     50.74204415	     90.00000001	      0.00000000	      0.00000000	      0.02680791	    -14.92249563	      5.89962215	     50.93903117	     90.00000001	      0.00000000	      0.00000000
      3.41000000	     23.48372093	     -0.06430560	     -6.06674813	     -0.61478118	      0.94473494	      0.06662627	    -24.83312569	     -2.47574028	    -27.84911316	     23.72654864	    -15.34792354	      0.41410639	     25.35710667	     34.11145094	     -7.50105133	     -3.45665636	      4.75866821	     -0.35874091	     31.55127371	     -0.79231974	      0.55067361	      7.78099334	    -18.82675283	     -7.50105133	    -38.22082349	     -4.84284818	      4.15837754	     19.45559472	    -11.01602361	     -3.28624202	     50.13355253	     90.00000001	      0.00000000	      0.00000000	      0.12749079	    -14.95802031	      5.78689471	     50.92731351	     90.00000001	      0.00000000	      0.00000000
      3.42000000	     23.41916172	      0.15338319	     -6.06349986	     -0.60999921	      0.94418284	      0.06487853	    -24.62273096	     -2.85370340	    -27.95191159	     24.71018686	    -15.63600394	      0.43127412	     25.40884800	     33.48955160	     -7.50103788	     -3.53174732	      5.07391771	     -0.67650723	     31.76078128	     -0.77254170	      0.55433021	      8.03810397	    -18.77431794	     -7.50103788	    -38.13693281	     -5.00735664	      4.10140950	     19.13920484	    -11.09704586	     -3.43661877	     49.44736243	     90.00000001	      0.00000000	      0.00000000	      0.23965030	    -15.01087739	      5.66744709	     50.89180733	     90.00000001	      0.00000000	      0.00000000
